Coordinates
nRows=7
nColumns=38

# SIMM Motion File Header:
name Coordinates
datacolumns 38
datarows 7
otherdata 1
range 1.75400000000000000000 1.76000000000000000000

Units are S.I. units (second, meters, Newtons, ...)
Angles are in degrees.

endheader
time	pelvis_tilt	pelvis_list	pelvis_rotation	pelvis_tx	pelvis_ty	pelvis_tz	hip_flexion_r	hip_adduction_r	hip_rotation_r	knee_angle_r	ankle_angle_r	subtalar_angle_r	mtp_angle_r	hip_flexion_l	hip_adduction_l	hip_rotation_l	knee_angle_l	ankle_angle_l	subtalar_angle_l	mtp_angle_l	lumbar_extension	lumbar_bending	lumbar_rotation	arm_flex_r	arm_add_r	arm_rot_r	elbow_flex_r	pro_sup_r	wrist_flex_r	wrist_dev_r	arm_flex_l	arm_add_l	arm_rot_l	elbow_flex_l	pro_sup_l	wrist_flex_l	wrist_dev_l
      1.75400000000000000000	    -12.23378807017208400000	     -0.22956360916048110000	     -5.11782730958926100000	      1.03518480455127840000	      1.04853049972196750000	     -0.34989766091999969000	     27.11579981474370600000	      5.04275773193761620000	      6.13082540803699590000	    -10.04942224537095500000	      5.33528134296446320000	      0.00000000000000000000	      0.00000000000000000000	      4.00906674507081200000	      4.21991458520756610000	      0.46070111531256858000	    -40.15231564130121500000	    -11.80967086306326400000	      0.00000000000000000000	      0.00000000000000000000	      1.55661369708785440000	      3.27594303069255770000	     -3.50815167619298450000	    -46.17172787566180100000	    -18.12412623287097800000	    -17.52006809941156400000	    107.63618831643744000000	    109.43736962597384000000	      0.00000000000000000000	      0.00000000000000000000	    -31.95003934572629900000	    -14.37135763032166500000	     -3.98416510449723700000	    129.11270424875286000000	     97.55932622815737400000	      0.00000000000000000000	      0.00000000000000000000
      1.75499999999999990000	    -12.19013300546609800000	     -0.22747899273443006000	     -5.11010153006777120000	      1.03520617368504130000	      1.04804367409126180000	     -0.34986515453903289000	     27.08925703565876100000	      5.04202935260579290000	      6.08097180325847830000	    -10.16914542273424400000	      5.29704006971215690000	     -0.00000000000000000077	      0.00000000000000000225	      4.09497157064337540000	      4.19632198202280640000	      0.39549941399882821000	    -40.54573073233609600000	    -11.67566562265945200000	      0.00000000000000000057	     -0.00000000000000000002	      1.51012942318464580000	      3.27996315668066260000	     -3.48100112184407970000	    -46.09335964103381400000	    -18.12796698235438300000	    -17.50712560820842600000	    107.66594243079176000000	    109.41047517940908000000	     -0.00000000000000000006	     -0.00000000000000000018	    -31.95902415335104900000	    -14.36508356100416800000	     -3.97897998926895460000	    129.02841177475818000000	     97.60568496219605100000	      0.00000000000000000021	      0.00000000000000000024
      1.75600000000000000000	    -12.14673459817450100000	     -0.22507764449832435000	     -5.10200917809431780000	      1.03522575922254110000	      1.04754688213687920000	     -0.34983174495123087000	     27.06404837549258200000	      5.04078604443334740000	      6.02892867471913970000	    -10.29498969689678000000	      5.26288098345723920000	     -0.00000000000000000539	      0.00000000000000000429	      4.18254981196476990000	      4.17171061654512790000	      0.32851600754489513000	    -40.94058890189963100000	    -11.54194940901233400000	      0.00000000000000000106	     -0.00000000000000000271	      1.46383312987673020000	      3.28328939875992140000	     -3.45379945351689390000	    -46.01370561948489500000	    -18.13197052230361100000	    -17.49330700388050300000	    107.69436023417910000000	    109.38425536615945000000	     -0.00000000000000000039	     -0.00000000000000000280	    -31.96794226057749500000	    -14.35926802200250000000	     -3.97395086789427190000	    128.94313237251185000000	     97.65286719442637800000	     -0.00000000000000000307	     -0.00000000000000000022
      1.75699999999999990000	    -12.10378119858888900000	     -0.22253489839617074000	     -5.09376738598149090000	      1.03524319149039500000	      1.04704022526987850000	     -0.34979724448462607000	     27.04059880961640900000	      5.03920845827977890000	      5.97327174396837090000	    -10.42731972075746100000	      5.22273571012466590000	     -0.00000000000000001457	      0.00000000000000001100	      4.27201170624562290000	      4.14585306590820850000	      0.25963003147344210000	    -41.33688373723041600000	    -11.40861637466276300000	      0.00000000000000000087	     -0.00000000000000000748	      1.41787912366860970000	      3.28616997579093840000	     -3.42632296576354190000	    -45.93274067889319000000	    -18.13620696161310900000	    -17.47864718097841000000	    107.72139924926812000000	    109.35867956339686000000	     -0.00000000000000000098	     -0.00000000000000000795	    -31.97675531866130400000	    -14.35383222588332300000	     -3.96899854119826180000	    128.85678028301794000000	     97.70087920363339200000	     -0.00000000000000000772	     -0.00000000000000000075
      1.75800000000000000000	    -12.06114293400873700000	     -0.21984181105455011000	     -5.08527899276123830000	      1.03525851898425340000	      1.04652387355470800000	     -0.34976175968018469000	     27.01875588443710900000	      5.03726024927712860000	      5.91419338448630770000	    -10.56607709199560900000	      5.17842742779385650000	     -0.00000000000000002645	      0.00000000000000001773	      4.36319643383499580000	      4.11878852028065180000	      0.18906826013046332000	    -41.73453238542878600000	    -11.27578382893320000000	      0.00000000000000000077	     -0.00000000000000001322	      1.37212948962221470000	      3.28857335464744870000	     -3.39865492533007660000	    -45.85043972040426000000	    -18.14068378465534400000	    -17.46314286993272800000	    107.74707086939934000000	    109.33373480237469000000	     -0.00000000000000000156	     -0.00000000000000001432	    -31.98547060305157800000	    -14.34880068840329800000	     -3.96409940565063130000	    128.76939591549564000000	     97.74966162502909100000	     -0.00000000000000001250	     -0.00000000000000000169
      1.75899999999999990000	    -12.01873809219833300000	     -0.21708330816728366000	     -5.07629363755267170000	      1.03527173894882510000	      1.04599800989764580000	     -0.34972562572195176000	     26.99842140798601500000	      5.03491384315904080000	      5.85145461587016060000	    -10.71121043815139200000	      5.13010323328274340000	     -0.00000000000000003707	      0.00000000000000002668	      4.45603223964743920000	      4.09046320582705650000	      0.11720376843089216000	    -42.13353143103749700000	    -11.14354149208593000000	      0.00000000000000000110	     -0.00000000000000001777	      1.32649488839107540000	      3.29057503168022690000	     -3.37103317834744590000	    -45.76677464597252500000	    -18.14542010879708700000	    -17.44679851689810200000	    107.77137626320247000000	    109.30940184656028000000	     -0.00000000000000000212	     -0.00000000000000001892	    -31.99408439219313700000	    -14.34417767671164500000	     -3.95921740310627300000	    128.68099517464680000000	     97.79916557437621800000	     -0.00000000000000001843	     -0.00000000000000000198
      1.76000000000000000000	    -11.97650974608854000000	     -0.21432360062157779000	     -5.06665816537730330000	      1.03528283019480010000	      1.04546276387383430000	     -0.34968904201029388000	     26.97954104392107100000	      5.03217661235026180000	      5.78498738122971990000	    -10.86269360546107300000	      5.07834072032608040000	     -0.00000000000000004819	      0.00000000000000003552	      4.55046385569120910000	      4.06083768679913070000	      0.04431593249596578500	    -42.53385630419437300000	    -11.01196547095071100000	      0.00000000000000000200	     -0.00000000000000002225	      1.28091243989231400000	      3.29223646138406690000	     -3.34359739908795060000	    -45.68172790523286900000	    -18.15043594894087100000	    -17.42962122467381300000	    107.79432091094954000000	    109.28565801842313000000	     -0.00000000000000000246	     -0.00000000000000002333	    -32.00260023659674900000	    -14.33996525928779400000	     -3.95431606264020410000	    128.59159596902978000000	     97.84934312001750800000	     -0.00000000000000002402	     -0.00000000000000000180
